<?xml version="1.0" encoding="UTF-8"?>
<svg id="_דובי" data-name="דובי" xmlns="http://www.w3.org/2000/svg" viewBox="0 0 388.93 385.44">
  <defs>
    <style>
      .cls-1 {
        fill: #917760;
      }

      .cls-1, .cls-2, .cls-3, .cls-4, .cls-5, .cls-6 {
        stroke-miterlimit: 10;
      }

      .cls-1, .cls-3, .cls-5, .cls-6 {
        stroke: #000;
      }

      .cls-2 {
        fill: #e6e7e8;
      }

      .cls-2, .cls-4 {
        stroke: #231f20;
        stroke-linecap: round;
      }

      .cls-3 {
        fill: #eac1e3;
      }

      .cls-5 {
        fill: none;
      }

      .cls-6 {
        fill: #630;
      }
    </style>
  </defs>
  <g>
    <path class="cls-6" d="M315.95,108.24c0-19.86-16.1-35.96-35.96-35.96-18.41,0-33.57,13.83-35.7,31.66-13.65-6.45-28.9-10.08-45-10.08s-31.35,3.62-45,10.08c-2.13-17.83-17.29-31.66-35.7-31.66-19.86,0-35.96,16.1-35.96,35.96,0,16.92,11.69,31.1,27.43,34.94-10.24,16.25-16.18,35.48-16.18,56.1,0,58.22,47.2,105.42,105.42,105.42s105.42-47.2,105.42-105.42c0-20.62-5.95-39.85-16.18-56.1,15.74-3.83,27.43-18.02,27.43-34.94Z"/>
    <circle class="cls-1" cx="199.29" cy="213.78" r="52.95"/>
    <ellipse class="cls-2" cx="173.31" cy="160.82" rx="16.01" ry="27.66"/>
    <ellipse class="cls-2" cx="225.27" cy="160.82" rx="16.01" ry="27.66"/>
    <ellipse class="cls-4" cx="178.87" cy="170.85" rx="10.21" ry="17.64"/>
    <ellipse class="cls-4" cx="219.72" cy="170.85" rx="10.21" ry="17.64"/>
    <path class="cls-3" d="M218.83,202.89c1.11,6.04-5.75,11.45-11.06,13.69-10.44,4.93-24.88-1.9-27.93-10.76-2.1-8.47,12.38-10.01,18.47-10.28,6.78-.14,18.32.53,20.49,7.28l.02.08Z"/>
  </g>
  <path class="cls-5" d="M234.27,223.03c-5.7,0-10.62,9.33-16.32,9.33s-12.69-9.33-18.65-9.33-10.88,9.33-17.1,9.33c-5.44,0-12.44-9.33-17.88-9.33"/>
</svg>