<?xml version="1.0" encoding="UTF-8"?>
<svg id="_ארנב" data-name="ארנב" xmlns="http://www.w3.org/2000/svg" viewBox="0 0 388.93 385.44">
  <defs>
    <style>
      .cls-1 {
        fill: #490008;
      }

      .cls-2 {
        fill: #fff;
      }

      .cls-3 {
        fill: none;
        stroke: #000;
        stroke-miterlimit: 10;
      }

      .cls-4 {
        fill: #c9c5b8;
      }
    </style>
  </defs>
  <g>
    <path class="cls-4" d="M194.41,311.4c-46.4,0-84.15-36.42-84.15-81.19,0-22.31,9.19-43.12,25.89-58.58l.21-.2-.07-.28c-3.05-13.12-4.67-28.78-4.67-45.27,0-41.28,10.19-74.87,22.71-74.87s22.71,33.59,22.71,74.87v3.76c.03,9.3.06,23.36-.65,30.03l-.07.68.67-.14c1.23-.26,2.44-.53,3.64-.81,4.58-1.04,8.91-2.03,13.77-2.03s8.95.41,14.58,1.41l.65.12-.07-.66c-.6-5.76-.5-16.67-.42-25.43.02-2.61.05-4.99.05-6.94,0-41.28,10.19-74.87,22.71-74.87s22.71,33.59,22.71,74.87c0,15.65-1.47,30.64-4.24,43.37l-.06.29.22.19c17.8,15.39,28.01,37.43,28.01,60.47,0,44.77-37.75,81.19-84.15,81.19Z"/>
    <path d="M231.91,51.51c5.64,0,11.27,7.79,15.46,21.37,4.36,14.14,6.75,32.97,6.75,53,0,15.61-1.46,30.57-4.23,43.26l-.13.58.45.39c17.69,15.3,27.84,37.2,27.84,60.1,0,44.49-37.53,80.69-83.65,80.69s-83.65-36.2-83.65-80.69c0-22.17,9.14-42.85,25.73-58.21l.43-.39-.13-.57c-3.04-13.09-4.65-28.7-4.65-45.16,0-20.04,2.4-38.86,6.75-53,4.18-13.58,9.82-21.37,15.46-21.37s11.27,7.79,15.46,21.37c4.36,14.14,6.75,32.97,6.75,53,0,1.12,0,2.39,0,3.76.02,9.29.05,23.34-.65,29.97l-.14,1.37,1.35-.28c1.23-.26,2.44-.53,3.64-.81,4.56-1.04,8.86-2.01,13.66-2.01s8.9.41,14.49,1.41l1.31.23-.14-1.32c-.59-5.74-.49-16.63-.41-25.37.02-2.61.05-4.99.05-6.94,0-20.04,2.4-38.86,6.75-53,4.18-13.58,9.82-21.37,15.46-21.37M231.91,50.51c-12.82,0-23.21,33.74-23.21,75.37,0,8.4-.41,24.88.37,32.42-5.02-.9-9.37-1.42-14.67-1.42-6.22,0-11.67,1.62-17.51,2.84.81-7.69.65-25.25.65-33.84,0-41.63-10.39-75.37-23.21-75.37s-23.21,33.74-23.21,75.37c0,17.04,1.74,32.76,4.68,45.39-16.05,14.87-26.05,35.78-26.05,58.94,0,45.11,37.9,81.69,84.65,81.69s84.65-36.57,84.65-81.69c0-24.18-10.89-45.9-28.18-60.85,2.68-12.29,4.25-27.28,4.25-43.48,0-41.63-10.39-75.37-23.21-75.37h0Z"/>
  </g>
  <ellipse class="cls-2" cx="194.41" cy="253.63" rx="47.73" ry="36.05"/>
  <path class="cls-3" d="M208.69,254.54c.85,1.76.28,5.7-5.35,6.48-11.52,1.58-9.14-23.13-8.92-16.84.23,6.76-1.04,17.09-7.8,17.09-5.92,0-8-2.01-6.87-6.3"/>
  <path class="cls-1" d="M194.41,234.72c-8.1,0-14.67,2.81-14.67,6.27,0,1.46,1.17,2.81,3.14,3.88.2-2.18,2.03-3.88,4.26-3.88,2.36,0,4.28,1.92,4.28,4.28,0,.65-.15,1.27-.41,1.82,1.09.11,2.23.17,3.39.17,1,0,1.98-.04,2.93-.12-.27-.56-.43-1.2-.43-1.87,0-2.36,1.92-4.28,4.28-4.28s4.19,1.83,4.27,4.12c2.25-1.1,3.62-2.54,3.62-4.12,0-3.46-6.57-6.27-14.67-6.27Z"/>
  <ellipse class="cls-2" cx="176.9" cy="205.23" rx="9.99" ry="12.35"/>
  <ellipse class="cls-2" cx="213.79" cy="205.23" rx="8.79" ry="12.35"/>
  <path d="M211.67,227.96c5.65,0,10.23-7.61,10.23-17-7.54,0-13.64-6.11-13.64-13.64,0-.86.08-1.7.24-2.52-4.1,2.22-7.06,8.62-7.06,16.17,0,9.39,4.58,17,10.23,17Z"/>
  <path d="M175.12,227.96c5.65,0,10.23-7.61,10.23-17-7.54,0-13.64-6.11-13.64-13.64,0-.86.08-1.7.24-2.52-4.1,2.22-7.06,8.62-7.06,16.17,0,9.39,4.58,17,10.23,17Z"/>
</svg>