<?xml version="1.0" encoding="UTF-8"?>
<svg id="_חתול" data-name="חתול" xmlns="http://www.w3.org/2000/svg" viewBox="0 0 388.93 385.44">
  <defs>
    <style>
      .cls-1 {
        fill: #f28bb4;
      }

      .cls-1, .cls-2, .cls-3 {
        stroke: #231f20;
        stroke-linecap: round;
        stroke-miterlimit: 10;
      }

      .cls-4 {
        fill: #663844;
      }

      .cls-2 {
        fill: #211f1c;
      }

      .cls-3 {
        fill: #fffcf8;
      }
    </style>
  </defs>
  <path class="cls-3" d="M250.65,134.79h-107.54c-1.97,0-3.77-1.1-4.66-2.85l-27.76-54.2c-2.03-3.97-7.78-3.75-9.5.36-8.76,21.06-7.93,92.58-7.93,118.39,0,80.87,43.17,99.16,103.61,99.16s104.04-20.03,104.04-100.9c0-25.81.4-95.59-8.36-116.65-1.71-4.11-7.46-4.33-9.5-.36l-27.76,54.2c-.9,1.75-2.7,2.85-4.66,2.85Z"/>
  <g>
    <path class="cls-2" d="M159.56,204.96l4.48-14.3,4.48,14.3c2.37-3.33,3.94-9.22,3.94-15.93,0-10.39-3.77-18.81-8.42-18.81s-8.42,8.42-8.42,18.81c0,6.71,1.57,12.6,3.94,15.93Z"/>
    <path class="cls-2" d="M225.06,204.68l4.67-14.92,4.67,14.92c2.26-3.37,3.74-9.12,3.74-15.65,0-10.39-3.77-18.81-8.42-18.81-4.65,0-8.42,8.42-8.42,18.81,0,6.53,1.49,12.27,3.74,15.65Z"/>
    <path class="cls-1" d="M191.45,231.01c-.3,2.2-.47,4.59-.47,7.1,0,10.83,3.1,19.61,6.93,19.61s6.93-8.78,6.93-19.61c0-2.5-.17-4.9-.47-7.1h-12.92Z"/>
    <path class="cls-2" d="M185.66,231.25c-5.8,0-10.71-1.69-12.36-4.01-.43.57-.67,1.18-.67,1.82,0,3.16,5.8,5.73,12.95,5.73s12.95-2.56,12.95-5.73c0-.6-.21-1.17-.59-1.72-1.72,2.27-6.57,3.91-12.28,3.91Z"/>
    <path class="cls-2" d="M209.91,231.25c-5.8,0-10.71-1.69-12.36-4.01-.43.57-.67,1.18-.67,1.82,0,3.16,5.8,5.73,12.95,5.73s12.95-2.56,12.95-5.73c0-.6-.21-1.17-.59-1.72-1.72,2.27-6.57,3.91-12.28,3.91Z"/>
    <g>
      <path class="cls-4" d="M196.88,230.51c-4.06,0-7.55-5.97-7.55-8.9,0-1,.33-1.51,2.13-1.51.63,0,1.38.06,2.17.13.98.08,2.09.17,3.26.17s2.34-.1,3.35-.19c.8-.07,1.56-.14,2.19-.14,1.7,0,2.01.5,2.01,1.47,0,2.96-3.5,8.97-7.55,8.97Z"/>
      <path d="M202.42,220.57h0c1.51,0,1.51.37,1.51.97,0,2.72-3.34,8.47-7.05,8.47s-7.05-5.71-7.05-8.4c0-.63,0-1.01,1.63-1.01.61,0,1.35.06,2.13.13.99.08,2.11.17,3.3.17s2.38-.1,3.4-.2c.79-.07,1.54-.14,2.14-.14M202.42,219.57c-1.44,0-3.39.33-5.54.33s-3.99-.3-5.43-.3c-1.61,0-2.63.38-2.63,2.01,0,3.07,3.61,9.4,8.05,9.4s8.05-6.41,8.05-9.47c0-1.59-.97-1.97-2.51-1.97h0Z"/>
    </g>
  </g>
</svg>