<?xml version="1.0" encoding="UTF-8"?>
<svg id="_פרה" data-name="פרה" xmlns="http://www.w3.org/2000/svg" viewBox="0 0 388.93 385.44">
  <defs>
    <style>
      .cls-1 {
        fill: #353535;
      }

      .cls-1, .cls-2, .cls-3 {
        stroke: #231f20;
        stroke-linecap: round;
        stroke-miterlimit: 10;
      }

      .cls-4 {
        fill: #ffb0eb;
      }

      .cls-5 {
        fill: #231f20;
      }

      .cls-6 {
        fill: #fff;
      }

      .cls-2 {
        fill: #f7e8c9;
      }

      .cls-7 {
        fill: #ffd0f1;
      }
    </style>
  </defs>
  <path class="cls-3" d="M318.76,117.34c0-7.94-18.29-14.38-40.85-14.38s-40.85,6.44-40.85,14.38c0,.44.06.87.17,1.3-.71,3.36.8,6.99,5.18,9.48l27.27,15.49c4.86,2.76,11.62,2.76,16.49,0l27.27-15.49c4.37-2.49,5.88-6.12,5.18-9.48.11-.43.17-.86.17-1.3Z"/>
  <path class="cls-3" d="M173.08,117.34c0-7.94-18.29-14.38-40.85-14.38s-40.85,6.44-40.85,14.38c0,.44.06.87.17,1.3-.71,3.36.8,6.99,5.18,9.48l27.27,15.49c4.86,2.76,11.62,2.76,16.49,0l27.27-15.49c4.37-2.49,5.88-6.12,5.18-9.48.11-.43.17-.86.17-1.3Z"/>
  <path class="cls-1" d="M156.68,120.14c0-4.75-10.95-8.6-24.45-8.6s-24.45,3.85-24.45,8.6c0,.26.04.52.1.78-.42,2.01.48,4.18,3.1,5.67l16.32,9.27c2.91,1.65,6.95,1.65,9.87,0l16.32-9.27c2.62-1.49,3.52-3.66,3.1-5.67.07-.26.1-.51.1-.78Z"/>
  <path class="cls-1" d="M302.35,120.14c0-4.75-10.95-8.6-24.45-8.6s-24.45,3.85-24.45,8.6c0,.26.04.52.1.78-.42,2.01.48,4.18,3.1,5.67l16.32,9.27c2.91,1.65,6.95,1.65,9.87,0l16.32-9.27c2.62-1.49,3.52-3.66,3.1-5.67.07-.26.1-.51.1-.78Z"/>
  <path class="cls-2" d="M219.92,119.51l33.74-45.13h.8v.05c.06-.03.12-.05.17-.05,1.5,0,2.72,10.08,2.72,22.51,0,12.43-1.22,22.51-2.72,22.51-.06,0-.12-.02-.17-.05v.15h-34.54Z"/>
  <path class="cls-2" d="M192.55,119.51l-33.74-45.13h-.8v.05c-.06-.03-.12-.05-.17-.05-1.5,0-2.72,10.08-2.72,22.51s1.22,22.51,2.72,22.51c.06,0,.12-.02.17-.05v.15h34.54Z"/>
  <g>
    <path class="cls-6" d="M207.7,205.39c52.42,0,90.65,7.67,90.91,33.21.82-7.65-.3-15.92-3.91-24.77-19.52-47.85-25.73-120.16-87.82-119.68-62.98.48-75.4,76.75-89.59,119.68-1.75,5.28-2.7,10.34-2.96,15.17.02-.05.05-.11.07-.16,0-.03,0-.06,0-.09,7.78-19.33,47.39-23.35,93.29-23.35Z"/>
    <path class="cls-6" d="M127.21,265.27c18.63,21.94,53.59,33.88,79.67,33.88,3.96,0,8.14-.29,12.46-.85-3.83.39-7.73.6-11.71.6-33.43,0-63.52-15.62-80.41-33.63Z"/>
    <path class="cls-7" d="M207.7,205.39c-45.9,0-85.51,4.03-93.29,23.35,0,.03,0,.06,0,.09-.73,14.03,4.37,26.15,12.88,36.18,16.89,18.01,46.98,33.63,80.41,33.63,3.98,0,7.89-.21,11.71-.6,31.01-4.04,68.62-22.38,77.56-51.38-8.8,29.14-46.53,47.58-77.63,51.63,45.15-4.6,78.72-35,79.19-58.68.03-.2.06-.39.08-.59,0-.05,0-.11,0-.16,0-.09,0-.18,0-.26-.26-25.54-38.49-33.21-90.91-33.21Z"/>
  </g>
  <ellipse class="cls-4" cx="189.8" cy="224.09" rx="9.49" ry="8.77"/>
  <ellipse class="cls-4" cx="223.14" cy="224.09" rx="9.49" ry="8.77"/>
  <ellipse class="cls-3" cx="188.6" cy="161.84" rx="9.13" ry="16.17"/>
  <ellipse class="cls-3" cx="224.35" cy="161.84" rx="9.13" ry="16.17"/>
  <g>
    <path d="M212.71,83.86c3.82,6.94,12.7,1.57,17.86.3,3.05-.83,6.14-.15,7.45,2.93,1.83,4.17-.73,8.73-4.3,11.25-4.03,3.03-9.06,5.28-11.92,9.43-4.48,6.31-4.57,15.39-11.4,20.29-4.04,3.14-11.56,3.45-14.19-1.92-1.16-2.67-.44-5.14.67-7.74,1.35-3.21,3.71-6.5,3.31-10.1-.95-7.02-14.3-7.47-20.08-10.3-3.74-1.6-8.41-4.52-8.63-8.49.25-4.16,5.83-4.73,9.91-4.59,4.03.14,8.29.97,12.25.51,2.31-.25,4.44-1.04,6.19-2.34,1.94-1.4,3.59-3.45,5.03-4.99,1.09-1.1,3.35-3.75,5.01-1.79,1.37,2.16,1.5,5.24,2.8,7.52v.02Z"/>
    <path class="cls-5" d="M211.41,84.62c3.44,5.98,10.2,4.21,15.55,2.3,2.36-.84,5.46-2.37,7.93-1.16,3.44,1.68,2.3,6.51.49,8.92-2.16,2.88-5.75,4.55-8.66,6.55s-5.52,4.34-7.29,7.48c-3.16,5.59-3.88,12.8-8.84,17.27-2.08,1.88-4.7,2.95-7.52,2.82-2.98-.14-5.83-2.07-5.94-5.28-.15-4.06,3.05-7.63,4.15-11.39.84-2.88.53-5.81-1.56-8.04-1.76-1.87-4.29-2.92-6.67-3.74-2.61-.89-5.31-1.49-7.97-2.22s-5.15-1.68-7.49-3.1c-1.78-1.08-6.1-4.24-4.13-6.76,1.55-1.99,5.26-1.9,7.5-1.85,4.31.09,8.6,1.02,12.91.5s7.37-2.62,10.18-5.66c1.1-1.19,2.12-2.54,3.39-3.56.3-.23.82-.72,1.2-.52.6.31.9,2.09,1.07,2.69.47,1.63.88,3.25,1.69,4.75.92,1.7,3.51.18,2.59-1.51-1.4-2.57-1.42-8.88-5.37-8.99-1.67-.04-3.06,1.16-4.17,2.28-1.38,1.39-2.6,2.93-4.02,4.27-6.75,6.36-16.26,1.54-24.37,3.12-2.87.56-6.09,2.4-6.07,5.73.02,3.67,3.37,6.49,6.24,8.2,5.27,3.14,11.31,3.74,16.96,5.87,2.02.76,4.55,1.93,5.33,4.12.63,1.76-.09,3.79-.79,5.42-.87,2.01-1.96,3.9-2.73,5.95-1.45,3.84-1.08,8.13,2.35,10.77,2.52,1.94,5.85,2.3,8.89,1.68,7.23-1.46,10.59-8.36,12.91-14.62,1.21-3.27,2.4-6.75,4.75-9.42,2.63-2.99,6.26-4.83,9.49-7.08s6.06-5.11,6.63-9.15c.51-3.63-1.26-7.59-4.98-8.64-3.12-.88-6.26.48-9.17,1.51-2.64.94-5.86,2.26-8.71,1.55-1.45-.36-2.43-1.29-3.17-2.57-.96-1.67-3.56-.16-2.59,1.51Z"/>
  </g>
</svg>