<?xml version="1.0" encoding="UTF-8"?>
<svg id="_היפופוטם" data-name="היפופוטם" xmlns="http://www.w3.org/2000/svg" viewBox="0 0 388.93 385.44">
  <defs>
    <style>
      .cls-1 {
        fill: #fff;
      }

      .cls-2 {
        fill: #6b6b6b;
      }

      .cls-3 {
        fill: #bcb9b7;
      }

      .cls-4 {
        fill: #333;
      }

      .cls-5 {
        fill: #afafaf;
      }
    </style>
  </defs>
  <g>
    <path class="cls-2" d="M106.49,103.98c13.15,11.28,21.62,20.2,17.02,29.31s-15.45,6.72-32.29,2.94c-15.31-3.43-23.03-19.47-18.42-28.58s21.79-13.9,33.69-3.68Z"/>
    <path class="cls-3" d="M106.09,109.63c9.31,7.99,15.31,14.3,12.05,20.75s-10.94,4.76-22.86,2.08c-10.84-2.43-16.3-13.78-13.04-20.23,3.26-6.45,15.42-9.84,23.85-2.6Z"/>
  </g>
  <g>
    <path class="cls-2" d="M281.24,105.15c-11.01,13.28-17.82,23.45-11.77,31.62,6.05,8.16,16.29,4,32.18-2.54,14.45-5.94,19.32-22.97,13.27-31.13-6.05-8.16-23.71-9.97-33.68,2.05Z"/>
    <path class="cls-3" d="M282.59,110.62c-7.79,9.4-12.62,16.6-8.34,22.38,4.28,5.78,11.53,2.83,22.78-1.8,10.23-4.2,13.68-16.26,9.4-22.04-4.28-5.78-16.78-7.06-23.84,1.45Z"/>
  </g>
  <ellipse class="cls-5" cx="194.25" cy="186.9" rx="110.49" ry="91.62"/>
  <circle class="cls-1" cx="128.87" cy="167.79" r="17.22"/>
  <circle class="cls-1" cx="260.67" cy="165.89" r="17.22"/>
  <path class="cls-2" d="M309.35,217.64c0,33.9-53.72,72.52-112.53,72.52s-113.05-35.99-113.05-69.89,53.37-47.49,112.18-47.49,113.4,10.97,113.4,44.87Z"/>
  <circle class="cls-4" cx="177.07" cy="204.51" r="11.15"/>
  <circle class="cls-4" cx="213.77" cy="204.51" r="10.97"/>
  <path d="M124.57,242.51c7.21,6.89,16.91,11.04,26.74,12.27,5.29.66,10.71.49,15.93-.61,4.94-1.05,9.62-3.03,13.86-5.77,4.53-2.93,8.51-6.6,12.33-10.39.27-.27-.15-.7-.42-.42-3.32,3.29-6.75,6.51-10.59,9.2-4.05,2.85-8.52,5.06-13.32,6.32-10.04,2.65-21,1.64-30.55-2.32-4.98-2.07-9.65-4.97-13.55-8.7-.28-.27-.7.16-.42.42h0Z"/>
  <path d="M194.04,239.07c7.21,6.89,16.91,11.04,26.74,12.27,5.29.66,10.71.49,15.93-.61,4.94-1.05,9.62-3.03,13.86-5.77,4.53-2.93,8.51-6.6,12.33-10.39.27-.27-.15-.7-.42-.42-3.32,3.29-6.75,6.51-10.59,9.2-4.05,2.85-8.52,5.06-13.32,6.32-10.04,2.65-21,1.64-30.55-2.32-4.98-2.07-9.65-4.97-13.55-8.7-.28-.27-.7.16-.42.42h0Z"/>
  <circle cx="258.78" cy="169.37" r="11.84"/>
  <circle cx="131.05" cy="171.52" r="11.84"/>
</svg>