<?xml version="1.0" encoding="UTF-8"?>
<svg id="_קוף" data-name="קוף" xmlns="http://www.w3.org/2000/svg" viewBox="0 0 388.93 385.44">
  <defs>
    <style>
      .cls-1 {
        fill: #ffd6bb;
      }

      .cls-2 {
        fill: #fff;
      }

      .cls-3 {
        fill: #efcee8;
        stroke: #000;
        stroke-miterlimit: 10;
        stroke-width: .25px;
      }

      .cls-4 {
        fill: #893d04;
      }
    </style>
  </defs>
  <g>
    <circle class="cls-4" cx="94.7" cy="187.85" r="27.25"/>
    <circle class="cls-4" cx="295.69" cy="187.85" r="27.25"/>
    <ellipse class="cls-4" cx="194.07" cy="193.52" rx="91.67" ry="86.01"/>
    <path class="cls-1" d="M277.01,205.25c.72-3.25,1.11-6.62,1.11-10.09,0-25.67-20.81-46.48-46.48-46.48-15.53,0-29.27,7.62-37.71,19.32-8.44-11.7-22.18-19.32-37.71-19.32-25.67,0-46.48,20.81-46.48,46.48,0,4.18.56,8.23,1.6,12.08-9.08,7.4-14.31,16.09-14.31,25.39,0,27,44.07,48.88,98.44,48.88s98.44-21.88,98.44-48.88c0-10.15-6.23-19.58-16.9-27.39Z"/>
  </g>
  <g>
    <path class="cls-2" d="M180.26,192.17l5.57,11.05c2.33-2.5,3.84-6.51,3.84-11.05,0-7.57-4.21-13.71-9.41-13.71s-9.41,6.14-9.41,13.71c0,4.53,1.51,8.55,3.84,11.05l5.57-11.05Z"/>
    <path d="M180.26,192.1l-5.57-11.05c-2.33,2.5-3.84,6.51-3.84,11.05,0,7.57,4.21,13.71,9.41,13.71s9.41-6.14,9.41-13.71c0-4.53-1.51-8.55-3.84-11.05l-5.57,11.05Z"/>
    <path class="cls-2" d="M210.13,192.17l5.57,11.05c2.33-2.5,3.84-6.51,3.84-11.05,0-7.57-4.21-13.71-9.41-13.71s-9.41,6.14-9.41,13.71c0,4.53,1.51,8.55,3.84,11.05l5.57-11.05Z"/>
    <path d="M210.13,192.1l-5.57-11.05c-2.33,2.5-3.84,6.51-3.84,11.05,0,7.57,4.21,13.71,9.41,13.71s9.41-6.14,9.41-13.71c0-4.53-1.51-8.55-3.84-11.05l-5.57,11.05Z"/>
  </g>
  <ellipse cx="191" cy="217.18" rx="1.42" ry="3.99"/>
  <ellipse cx="199.99" cy="217.18" rx="1.42" ry="3.99"/>
  <path class="cls-3" d="M195.47,266.24c48.2,0,87.28-14.11,87.28-31.51H108.19c0,17.4,39.08,31.51,87.28,31.51Z"/>
</svg>