<?xml version="1.0" encoding="UTF-8"?>
<svg id="_חזיר" data-name="חזיר" xmlns="http://www.w3.org/2000/svg" viewBox="0 0 388.93 385.44">
  <defs>
    <style>
      .cls-1 {
        fill: #fcd6f5;
      }

      .cls-1, .cls-2, .cls-3 {
        stroke-miterlimit: 10;
      }

      .cls-1, .cls-3 {
        stroke: #231f20;
        stroke-linecap: round;
      }

      .cls-2 {
        fill: #fff;
        stroke: #000;
      }

      .cls-3 {
        fill: #0a0a0a;
      }
    </style>
  </defs>
  <path class="cls-1" d="M297.09,154.8l-45.56-76.21-30.33,50.73c-7.84-2.3-16.16-3.54-24.79-3.54s-16.12,1.12-23.62,3.21l-30.13-50.4-45.56,76.21h34.42c-12.6,14.33-20.2,32.88-20.2,53.15,0,45.38,38.1,82.17,85.1,82.17s85.1-36.79,85.1-82.17c0-20.27-7.6-38.82-20.2-53.15h35.78Z"/>
  <g>
    <ellipse class="cls-1" cx="197.09" cy="227.35" rx="26.15" ry="18.68"/>
    <ellipse class="cls-3" cx="187.72" cy="227.35" rx="4.98" ry="10.46"/>
    <ellipse class="cls-3" cx="206.46" cy="227.35" rx="4.98" ry="10.46"/>
  </g>
  <g>
    <path class="cls-2" d="M181.07,197.51c3.87,0,7.31,2.37,9.5,6.04.66-3.5,1.03-7.43,1.03-11.57,0-14.81-4.71-26.82-10.53-26.82s-10.53,12.01-10.53,26.82c0,4.15.37,8.07,1.03,11.57,2.19-3.67,5.63-6.04,9.5-6.04Z"/>
    <path class="cls-2" d="M213.11,196.88c3.87,0,7.31,2.37,9.5,6.04.66-3.5,1.03-7.43,1.03-11.57,0-14.81-4.71-26.82-10.53-26.82s-10.53,12.01-10.53,26.82c0,4.15.37,8.07,1.03,11.57,2.19-3.67,5.63-6.04,9.5-6.04Z"/>
    <path class="cls-3" d="M181.4,200.8c3.99,0,7.53,1.12,9.79,2.87.68-1.66,1.06-3.52,1.06-5.49,0-7.02-4.86-12.72-10.85-12.72s-10.85,5.69-10.85,12.72c0,1.97.38,3.83,1.06,5.49,2.26-1.74,5.8-2.87,9.79-2.87Z"/>
    <path class="cls-3" d="M213.11,200.8c3.87,0,7.31,1.12,9.5,2.87.66-1.66,1.03-3.52,1.03-5.49,0-7.02-4.71-12.72-10.53-12.72s-10.53,5.69-10.53,12.72c0,1.97.37,3.83,1.03,5.49,2.19-1.74,5.63-2.87,9.5-2.87Z"/>
  </g>
</svg>