<?xml version="1.0" encoding="UTF-8"?>
<svg id="_עטלף" data-name="עטלף" xmlns="http://www.w3.org/2000/svg" viewBox="0 0 388.93 385.44">
  <defs>
    <style>
      .cls-1 {
        fill: #556277;
      }

      .cls-1, .cls-2, .cls-3, .cls-4 {
        stroke: #000;
        stroke-miterlimit: 10;
      }

      .cls-5 {
        fill: #563952;
      }

      .cls-2, .cls-6 {
        fill: #fff;
      }

      .cls-4 {
        fill: #75546f;
      }
    </style>
  </defs>
  <path class="cls-1" d="M101.61,199.88c0-41.21,40.79-54.35,91.1-54.35s91.1,10.38,91.1,51.58-40.79,97.64-91.1,97.64-91.1-53.67-91.1-94.88Z"/>
  <path class="cls-1" d="M305.54,150.46c-.16,7.77-1.49,17.73-15.2,23.49-7.33,2.9-17.26,2.96-26.68,2.92-12.73-.17-24.29.46-34.19-4.9-4.19-2.41-6.82-5.27-8.65-8.14-14.15-22.71,18.4-91.47,39.66-94.69,6.51-.59,12.27,5.71,14.94,8.43,10.37,11.69,16.69,24.33,22.26,37.96,4.67,12.22,7.8,23.34,7.86,34.9v.03Z"/>
  <path class="cls-1" d="M173.39,150.46c-.16,7.77-1.49,17.73-15.2,23.49-7.33,2.9-17.26,2.96-26.68,2.92-12.73-.17-24.29.46-34.19-4.9-4.19-2.41-6.82-5.27-8.65-8.14-14.15-22.71,18.4-91.47,39.66-94.69,6.51-.59,12.27,5.71,14.94,8.43,10.37,11.69,16.69,24.33,22.26,37.96,4.67,12.22,7.8,23.34,7.86,34.9v.03Z"/>
  <path class="cls-4" d="M158.95,149.4c-.11,5.22-1,11.92-10.22,15.8-4.93,1.95-11.61,1.99-17.94,1.96-8.56-.11-16.34.31-22.99-3.3-2.82-1.62-4.59-3.55-5.82-5.47-9.51-15.27,12.38-61.51,26.67-63.68,4.38-.39,8.25,3.84,10.05,5.67,6.98,7.86,11.22,16.36,14.97,25.53,3.14,8.22,5.24,15.69,5.29,23.47v.02Z"/>
  <path class="cls-4" d="M291.1,149.4c-.11,5.22-1,11.92-10.22,15.8-4.93,1.95-11.61,1.99-17.94,1.96-8.56-.11-16.34.31-22.99-3.3-2.82-1.62-4.59-3.55-5.82-5.47-9.51-15.27,12.38-61.51,26.67-63.68,4.38-.39,8.25,3.84,10.05,5.67,6.98,7.86,11.22,16.36,14.97,25.53,3.14,8.22,5.24,15.69,5.29,23.47v.02Z"/>
  <path class="cls-2" d="M215.58,273.74c-.01-1.4-.12-3.19-1.18-4.23-.57-.52-1.34-.53-2.07-.53-.99.03-1.88-.08-2.65.88-.32.43-.53.95-.67,1.47-1.1,4.09,1.43,16.47,3.07,17.06.5.11.95-1.03,1.16-1.52.8-2.1,1.29-4.38,1.73-6.84.36-2.2.6-4.2.61-6.29h0Z"/>
  <path class="cls-2" d="M180.22,273.74c-.01-1.4-.12-3.19-1.18-4.23-.57-.52-1.34-.53-2.07-.53-.99.03-1.88-.08-2.65.88-.32.43-.53.95-.67,1.47-1.1,4.09,1.43,16.47,3.07,17.06.5.11.95-1.03,1.16-1.52.8-2.1,1.29-4.38,1.73-6.84.36-2.2.6-4.2.61-6.29h0Z"/>
  <ellipse class="cls-6" cx="180.36" cy="203.63" rx="9.14" ry="20.88"/>
  <ellipse class="cls-3" cx="180.36" cy="207.96" rx="7.13" ry="16.27"/>
  <ellipse class="cls-6" cx="205.04" cy="203.63" rx="9.14" ry="20.88"/>
  <ellipse class="cls-3" cx="205.04" cy="207.96" rx="7.13" ry="16.27"/>
  <path class="cls-4" d="M218.63,261.24c-.09,2.37-.81,5.4-8.25,7.16-3.98.88-9.38.9-14.49.89-6.92-.05-13.2.14-18.57-1.49-2.28-.74-3.71-1.61-4.7-2.48-7.68-6.92,10-27.87,21.54-28.86,3.54-.18,6.66,1.74,8.12,2.57,5.63,3.56,9.07,7.42,12.09,11.57,2.53,3.72,4.23,7.11,4.27,10.64h0Z"/>
  <circle class="cls-5" cx="186.53" cy="259.04" r="6.17"/>
  <circle class="cls-5" cx="202.83" cy="259.04" r="6.17"/>
</svg>