<?xml version="1.0" encoding="UTF-8"?>
<svg id="_כבשה" data-name="כבשה" xmlns="http://www.w3.org/2000/svg" viewBox="0 0 388.93 385.44">
  <defs>
    <style>
      .cls-1 {
        fill: #606060;
      }

      .cls-2 {
        fill: #fff;
      }

      .cls-3 {
        fill: #968096;
      }

      .cls-4 {
        fill: #d3d1cf;
      }

      .cls-5 {
        fill: #f7f7f7;
      }

      .cls-6 {
        fill: #bfbfbf;
      }
    </style>
  </defs>
  <g>
    <g>
      <path class="cls-5" d="M93.4,176.64c-24.01-37.72,10.25-39.87,32.85-22.85,1.83,1.38,4.05.51,4.5-1.81,3.21-16.63,11.11-31.96,28.45-28.57.07.01.13.02.2.03,15.96,1.84,36.3,1.74,32.13,23.4-.49,2.56,1.5,5.21,3.72,4.99,14.88-1.46,31.38-4.58,44.87,8.17,13.47,11.4,5.49,25.73-6.78,27.51-.39.06-.77.18-1.09.43-1.41,1.07-.22,2.79,1.08,4.95,13.6,22.91-9.45,41.22-27.25,33.46-.14-.06-.28-.11-.42-.15-10.01-2.61-17.01-13.72-19.49,2.94-.04.27-.1.53-.19.77-6.42,17.15-40.55,20.28-43.14-4.73-.2-3.18-1.26-2.08-2.48-.75-.19.2-.34.44-.47.7-11.85,23-83.85,34.76-53.48-5.87,1.09-1.45.86-3.85-.51-5.34-13.96-15.22-3.44-22.59,7.17-32.13,1.28-1.15,1.42-3.43.32-5.15Z"/>
      <path class="cls-6" d="M93.66,176.49c-3.22-5.07-6.24-10.56-7.58-16.47-.78-3.46-.97-7.37.84-10.55,1.5-2.64,4.17-4.22,7.05-4.96,3.58-.92,7.41-.71,11.02-.04,4.38.81,8.61,2.34,12.59,4.32,2.15,1.07,4.23,2.29,6.22,3.63.5.33.99.68,1.47,1.03.52.38,1.02.82,1.63,1.07,1.1.46,2.37.25,3.22-.6,1.02-1.03,1.08-2.64,1.37-3.99.33-1.5.7-2.99,1.12-4.47.82-2.87,1.82-5.69,3.12-8.38,2.27-4.72,5.52-9.21,10.22-11.74,2.34-1.26,4.95-1.94,7.6-2.06,2.82-.13,5.58.46,8.37.76,4.86.51,9.76.91,14.54,1.95,4.12.9,8.45,2.31,11.51,5.36,3.4,3.39,4.16,8.2,3.67,12.81-.16,1.5-.7,3.08-.36,4.59.31,1.33,1.2,2.61,2.48,3.16s2.92.11,4.27-.03c1.6-.17,3.21-.34,4.81-.5,6.49-.65,13.12-1.08,19.58.09,3.27.59,6.46,1.6,9.43,3.09,3.35,1.68,6.23,3.96,8.97,6.5,4.37,4.04,7.31,9.89,5.41,15.87-1.61,5.08-6.2,8.76-11.28,10.01-1.21.3-2.98.24-3.52,1.62s.73,3.02,1.4,4.12c1.72,2.83,3.08,5.88,3.79,9.13,1.15,5.27.38,10.81-2.45,15.43-2.59,4.24-6.69,7.48-11.33,9.21s-10,1.97-14.81.38c-.63-.21-1.24-.47-1.87-.71-.59-.23-1.22-.36-1.82-.57-1.11-.38-2.18-.85-3.23-1.37-1.89-.93-3.7-2.03-5.58-2.98-1.36-.68-2.92-1.41-4.48-1.28s-2.63,1.21-3.33,2.53c-.56,1.06-.93,2.22-1.21,3.38-.37,1.5-.43,3.13-1.02,4.56-.73,1.77-1.79,3.4-3.06,4.83-2.62,2.94-6.1,5.05-9.8,6.34s-7.92,1.84-11.93,1.4-7.82-1.84-10.89-4.38c-3.36-2.78-5.44-6.7-6.3-10.95-.13-.65-.24-1.31-.32-1.97s-.07-1.39-.31-2.04c-.29-.81-.95-.94-1.62-.45-1.43,1.06-2.07,2.78-3.08,4.2-1.83,2.57-4.21,4.73-6.74,6.6-2.88,2.12-6.02,3.89-9.26,5.41-3.44,1.61-7.02,2.92-10.67,3.97s-7.12,1.76-10.76,2.17c-3.23.36-6.51.48-9.74.09-2.57-.3-5.21-.94-7.44-2.29-1.88-1.14-3.35-2.83-3.94-4.97-.74-2.67-.15-5.53.77-8.07.67-1.85,1.57-3.61,2.56-5.31.58-.99,1.19-1.96,1.83-2.91.36-.54.73-1.07,1.11-1.59s.84-1.05,1.12-1.65c.58-1.26.44-2.78-.17-4-.4-.8-1.06-1.41-1.64-2.08-.67-.77-1.31-1.56-1.91-2.39-1.78-2.43-3.32-5.2-3.72-8.23-.68-5.1,2.42-9.39,5.81-12.85,1.94-1.98,4.02-3.8,6.1-5.64.97-.86,2.2-1.67,2.68-2.93.52-1.38.24-2.95-.51-4.18-.2-.33-.72-.03-.52.3.88,1.45,1.05,3.54-.27,4.79-1.09,1.03-2.25,2-3.37,2.99-2.1,1.87-4.2,3.77-6.05,5.89-1.58,1.81-3,3.81-3.82,6.08s-.92,4.62-.37,6.92c.72,3.02,2.42,5.74,4.31,8.16.65.83,1.34,1.63,2.05,2.41.59.66.99,1.42,1.13,2.3.14.82.04,1.7-.37,2.43-.32.57-.77,1.08-1.15,1.61-2.4,3.36-4.64,7.02-5.82,11-.74,2.5-1.05,5.29-.12,7.78.79,2.12,2.41,3.76,4.36,4.86,2.35,1.31,5.05,1.91,7.71,2.19,3.29.35,6.62.21,9.9-.19,3.68-.45,7.33-1.23,10.89-2.27s7.24-2.42,10.68-4.05c3.25-1.54,6.39-3.35,9.27-5.51,2.53-1.9,4.88-4.09,6.71-6.69.41-.58.79-1.18,1.13-1.81.3-.54.61-1.02,1.04-1.47.2-.21.7-.84,1.05-.81.47.05.49,1.37.52,1.66.05.62.14,1.24.24,1.85.2,1.2.49,2.4.88,3.55,1.33,3.93,3.84,7.35,7.3,9.66s7.27,3.3,11.22,3.5,8.19-.51,11.95-2.05,6.98-3.74,9.42-6.82c1.16-1.47,2.31-3.23,2.81-5.05.23-.83.29-1.72.46-2.57.15-.74.32-1.48.54-2.21.31-1.04.71-2.1,1.34-2.99,2.22-3.12,6.25-.47,8.72.9,1.96,1.08,3.93,2.17,6.02,2.97.55.21,1.12.4,1.69.57.68.19,1.31.47,1.97.71,1.21.45,2.45.79,3.72,1.02,4.91.88,10.03.08,14.48-2.13s8.11-5.73,10.28-10.14c2.4-4.87,2.7-10.45,1.25-15.64-.43-1.54-1-3.04-1.67-4.48-.78-1.68-1.8-3.2-2.67-4.82-.35-.65-.87-1.63-.41-2.35s1.48-.74,2.26-.9c1.33-.27,2.62-.69,3.85-1.25,4.61-2.09,8.33-6.32,9.08-11.42.38-2.6-.03-5.23-1.07-7.63-1.39-3.21-3.75-5.6-6.29-7.93-5.14-4.71-11.49-7.66-18.36-8.73-6.48-1.01-13.07-.53-19.56.14-1.6.16-3.2.34-4.8.51-.77.08-1.59.25-2.36.21-.81-.05-1.54-.51-2.06-1.11-.56-.64-.92-1.47-1.02-2.32s.14-1.69.27-2.53c.22-1.42.35-2.85.33-4.29-.04-4.37-1.58-8.53-5.03-11.33s-7.81-4.03-12.04-4.85c-4.85-.94-9.78-1.31-14.69-1.84-1.44-.16-2.85-.45-4.29-.57s-2.89-.1-4.33.08c-2.53.32-4.97,1.15-7.15,2.47-4.54,2.74-7.68,7.28-9.88,12.01-1.25,2.69-2.23,5.49-3.03,8.34-.42,1.51-.79,3.03-1.12,4.57-.3,1.41-.39,3.3-2,3.85-1.43.49-2.56-.63-3.64-1.4-1.01-.72-2.04-1.4-3.1-2.05-2.04-1.25-4.17-2.37-6.36-3.35-3.98-1.77-8.2-3.1-12.53-3.67-3.5-.46-7.22-.45-10.59.71-2.82.97-5.28,2.84-6.56,5.58-1.58,3.39-1.28,7.34-.4,10.88,1.42,5.74,4.35,11.08,7.5,16.04.21.33.73.02.52-.3Z"/>
    </g>
    <g>
      <path class="cls-5" d="M292.18,173.8c21.77-35.01-12.37-36.66-33.87-20.74-1.74,1.29-4,.51-4.57-1.62-4.1-15.3-12.79-29.36-29.82-26.06-.06.01-.13.02-.19.03-15.75,1.86-35.95,1.96-30.61,21.89.63,2.36-1.2,4.82-3.42,4.64-14.86-1.19-31.41-3.91-44.11,7.98-12.74,10.65-4.03,23.78,8.24,25.29.39.05.78.16,1.11.38,1.46.97.37,2.57-.8,4.58-12.24,21.26,11.65,37.91,28.9,30.58.13-.06.27-.1.41-.14,9.8-2.5,16.14-12.82,19.51,2.52.05.25.13.48.23.71,7.32,15.75,41.38,18.3,42.57-4.79.02-2.94,1.14-1.93,2.42-.72.2.18.36.4.51.64,13.03,21.09,85.16,31.22,52.78-5.95-1.16-1.33-1.07-3.54.21-4.92,13.02-14.17,2.18-20.86-8.89-29.55-1.33-1.05-1.59-3.15-.6-4.75Z"/>
      <path class="cls-6" d="M292.44,173.95c2.92-4.72,5.66-9.87,6.67-15.38.61-3.3.54-6.92-1.27-9.86-1.57-2.54-4.22-4.12-7.05-4.9-3.48-.96-7.19-.87-10.74-.35-4.26.63-8.42,1.96-12.34,3.74-2.11.95-4.15,2.04-6.12,3.26-.99.61-1.95,1.26-2.89,1.93-.56.4-1.08.83-1.77.95s-1.45-.07-2-.53c-.61-.51-.83-1.22-1.03-1.96-.19-.69-.39-1.38-.6-2.07-.44-1.42-.91-2.83-1.45-4.21-1.01-2.63-2.19-5.2-3.64-7.62-2.65-4.41-6.27-8.42-11.02-10.58-2.38-1.08-4.95-1.66-7.56-1.76-2.84-.11-5.61.48-8.42.78-4.85.52-9.75.94-14.53,1.98-3.99.87-8.23,2.2-11.22,5.1s-3.88,7.28-3.33,11.45c.09.7.22,1.4.37,2.09.16.74.45,1.5.45,2.26,0,1.58-1.17,3.25-2.83,3.37-.76.05-1.57-.1-2.33-.16s-1.54-.13-2.31-.2c-1.62-.14-3.23-.28-4.85-.41-6.36-.48-12.83-.68-19.11.61-3.12.64-6.15,1.67-8.98,3.13-3.08,1.6-5.8,3.74-8.31,6.11-2.19,2.07-4.02,4.62-4.8,7.56-.63,2.39-.5,4.94.4,7.25,1.88,4.86,6.54,8.21,11.48,9.49.67.17,1.35.31,2.04.41.77.11,1.87.27,2,1.23.1.79-.46,1.63-.83,2.29-.44.76-.89,1.52-1.3,2.3-1.29,2.51-2.21,5.21-2.57,8.01-.61,4.82.67,9.67,3.51,13.6s6.78,6.68,11.2,8.32,9.6,2.11,14.33.98c1.22-.29,2.37-.74,3.54-1.17s2.32-.7,3.44-1.18c2-.84,3.89-1.92,5.81-2.93,1.45-.76,3.07-1.66,4.75-1.7s2.86,1.15,3.63,2.56c.64,1.18,1.06,2.49,1.41,3.78.21.78.31,1.62.63,2.36.18.43.41.85.64,1.25.91,1.58,2.08,3.01,3.42,4.25,2.85,2.64,6.4,4.47,10.1,5.59s7.92,1.6,11.91,1.16c3.75-.41,7.49-1.62,10.52-3.91s5.22-5.75,6.08-9.56c.24-1.08.4-2.18.47-3.29.03-.42-.12-1.65.31-1.92.28-.18.75.29.95.45,1.25,1.05,2.02,2.59,3.1,3.82,2.05,2.33,4.54,4.25,7.14,5.92,2.99,1.91,6.19,3.48,9.47,4.83,3.47,1.42,7.05,2.59,10.69,3.5s7.1,1.54,10.72,1.9c3.2.32,6.44.41,9.64.05,2.55-.28,5.14-.83,7.42-2.04,1.82-.97,3.38-2.44,4.11-4.41.83-2.24.45-4.74-.32-6.94-1.26-3.57-3.49-6.75-5.85-9.68-.81-1.01-2.07-2.06-2.37-3.36-.19-.82-.06-1.72.33-2.47.43-.82,1.19-1.48,1.79-2.19,1.96-2.34,3.75-5.01,4.46-8.02.52-2.22.34-4.5-.55-6.59-.94-2.23-2.52-4.13-4.23-5.81-1.95-1.94-4.12-3.65-6.29-5.34-1.18-.92-2.4-1.81-3.56-2.76-1.32-1.09-1.39-2.97-.56-4.38.2-.33-.32-.64-.52-.3-.7,1.19-.87,2.67-.27,3.94.31.65.79,1.07,1.35,1.51.62.48,1.24.96,1.86,1.44,2.29,1.77,4.59,3.54,6.71,5.51,3.5,3.26,6.63,7.44,5.5,12.49-.7,3.16-2.64,5.94-4.72,8.35-1.04,1.2-2.04,2.26-2,3.95.03,1.43.86,2.33,1.72,3.36,2.52,2.99,4.96,6.27,6.39,9.95.85,2.18,1.37,4.66.62,6.94-.64,1.95-2.18,3.37-3.95,4.31-2.25,1.19-4.83,1.72-7.34,1.97-3.18.33-6.41.22-9.59-.1-3.6-.37-7.17-1.04-10.67-1.94s-7.1-2.07-10.52-3.48-6.42-2.93-9.38-4.84c-2.57-1.66-5.01-3.58-7-5.91-1.07-1.25-1.82-2.76-3.13-3.79-.52-.41-1.3-.8-1.74-.05-.3.52-.28,1.21-.3,1.78s-.08,1.16-.16,1.73c-.53,3.99-2.31,7.71-5.38,10.35-2.87,2.48-6.57,3.83-10.29,4.35-3.95.54-8.02.19-11.84-.9s-7.35-2.83-10.24-5.45c-1.36-1.23-2.55-2.64-3.46-4.23-.22-.38-.43-.77-.61-1.17-.35-.79-.45-1.71-.68-2.54-.34-1.22-.75-2.45-1.33-3.58-.72-1.39-1.82-2.71-3.45-2.97-1.52-.25-3.05.37-4.41,1-1.86.87-3.62,1.93-5.46,2.84-1.04.51-2.1.98-3.2,1.36-.56.19-1.12.33-1.68.51-.63.2-1.24.49-1.87.7-4.65,1.56-9.74,1.48-14.41.06s-8.8-4.08-11.79-7.84-4.51-8.67-4.01-13.55c.3-2.88,1.25-5.68,2.58-8.24.7-1.35,1.84-2.7,2.13-4.21.26-1.35-.78-2.17-2.02-2.36-5.3-.79-10.52-3.55-13.01-8.5-1.14-2.27-1.53-4.87-1-7.37.64-3.06,2.49-5.7,4.71-7.82,2.51-2.4,5.26-4.54,8.35-6.14,2.87-1.48,5.95-2.48,9.11-3.1,6.3-1.24,12.78-.97,19.15-.48,1.58.12,3.17.26,4.75.4.77.07,1.53.14,2.3.2.72.06,1.48.2,2.19.09,1.29-.21,2.33-1.21,2.81-2.4.57-1.42.1-2.71-.2-4.13-.91-4.28-.71-9,2.42-12.36,2.84-3.05,7.09-4.42,11.05-5.3,4.74-1.06,9.59-1.49,14.41-2,2.76-.29,5.5-.88,8.29-.82s5.37.62,7.81,1.75c4.81,2.22,8.39,6.34,11,10.86,1.43,2.48,2.6,5.11,3.58,7.8.49,1.34.94,2.71,1.34,4.08.37,1.26.55,2.71,1.62,3.6.9.74,2.13.88,3.19.43.59-.25,1.08-.68,1.59-1.04.46-.33.93-.65,1.41-.96,1.92-1.26,3.93-2.4,6-3.4,3.91-1.89,8.07-3.33,12.36-4.09,3.57-.63,7.34-.83,10.89,0,2.86.67,5.61,2.12,7.24,4.64,1.88,2.93,1.89,6.6,1.23,9.9-1.07,5.33-3.7,10.29-6.54,14.87-.2.33.31.63.52.3Z"/>
    </g>
    <path class="cls-4" d="M321.51,110.1c-6.25-10.82-17.01-21.5-34.67-10.37-19.1,12.04-41.61,40.09-35.37,50.91,6.25,10.82,28.12-2.13,52.72-10.23,19.51-6.42,23.56-19.49,17.31-30.31Z"/>
    <path class="cls-4" d="M53.08,110.1c6.25-10.82,17.01-21.5,34.67-10.37,19.1,12.04,41.61,40.09,35.37,50.91s-28.12-2.13-52.72-10.23c-19.51-6.42-23.56-19.49-17.31-30.31Z"/>
    <path class="cls-1" d="M309,115.51c-3.96-6.86-10.79-13.64-21.99-6.58-12.11,7.64-26.39,25.43-22.43,32.29s17.83-1.35,33.44-6.49c12.37-4.07,14.94-12.36,10.98-19.22Z"/>
    <path class="cls-1" d="M65.59,115.51c3.96-6.86,10.79-13.64,21.99-6.58,12.11,7.64,26.39,25.43,22.43,32.29-3.96,6.86-17.83-1.35-33.44-6.49-12.37-4.07-14.94-12.36-10.98-19.22Z"/>
    <path class="cls-4" d="M289.51,230.31c0,62.71-39.83,65.93-98.86,65.93s-94.42-4.98-94.42-67.7,36.07-130.07,95.1-130.07,98.18,69.13,98.18,131.84Z"/>
    <g>
      <path class="cls-5" d="M134.42,98.24c-12.45-36.99,22.82-30.06,40.3-10.38,1.42,1.59,3.93,1.44,5.11-.34,8.44-12.81,21.21-23.36,37.65-16.19.06.03.13.05.19.08,15.54,5.56,36.1,10.64,25.11,27.32-1.3,1.98-.12,4.65,2.19,5.04,15.48,2.58,33.11,4.21,42.74,18.08,10.03,12.76-2.5,22.47-15.44,20.82-.41-.05-.84-.04-1.24.07-1.76.52-1.09,2.23-.45,4.33,6.56,22.22-22.43,31.37-37.97,20.5-.12-.09-.25-.16-.38-.23-9.29-4.68-12.88-15.56-20.59-2.54-.12.21-.27.41-.43.58-11.84,12.42-47.28,6.33-42.06-14.82.79-2.66-.62-2.03-2.26-1.24-.25.12-.48.27-.7.45-19.16,15.84-95.5,7.2-52.15-18.38,1.55-.92,2.07-2.93,1.16-4.5-9.33-16.01,3.59-19.38,17.28-24.5,1.65-.62,2.5-2.46,1.94-4.14Z"/>
      <path class="cls-6" d="M134.71,98.16c-1.61-4.8-2.93-9.98-2.53-15.09.25-3.16,1.34-6.34,3.83-8.43,2.27-1.91,5.31-2.56,8.22-2.56,3.64,0,7.25.94,10.63,2.24,3.96,1.52,7.69,3.63,11.13,6.1,1.83,1.32,3.57,2.75,5.22,4.28.8.75,1.58,1.52,2.34,2.32.84.89,1.56,1.87,2.83,2.15,1.19.26,2.46-.11,3.3-.99.5-.53.86-1.21,1.28-1.8.45-.65.92-1.3,1.39-1.94,1.88-2.52,3.96-4.91,6.27-7.05,4.38-4.06,9.78-7.26,15.8-7.94,3.16-.36,6.35-.02,9.4.87,1.62.47,3.14,1.16,4.72,1.72,1.28.45,2.56.89,3.85,1.34,5.1,1.76,10.3,3.49,15.01,6.14,3.57,2.01,7.36,4.9,8.06,9.21.37,2.29-.22,4.62-1.17,6.69-.3.66-.64,1.3-1,1.92s-.83,1.21-1.1,1.88c-.45,1.12-.27,2.43.44,3.41.84,1.17,2.05,1.39,3.39,1.61,1.48.24,2.97.48,4.46.72,3.07.49,6.14,1,9.19,1.63,5.94,1.23,11.89,2.9,17.2,5.9,2.63,1.49,5.08,3.3,7.21,5.45,1.13,1.14,2.18,2.37,3.11,3.68.99,1.39,1.99,2.73,2.71,4.29,1.14,2.47,1.55,5.27.68,7.89-.79,2.39-2.55,4.34-4.62,5.72-2.36,1.57-5.14,2.49-7.94,2.85-1.46.19-2.95.23-4.42.13-1.19-.08-2.97-.54-3.74.72-.63,1.04,0,2.53.32,3.56.4,1.3.71,2.62.89,3.97.29,2.25.21,4.56-.35,6.76-1.04,4.06-3.69,7.46-7.11,9.82-3.62,2.5-7.95,3.9-12.3,4.36s-9.11-.03-13.33-1.63c-1.05-.4-2.07-.87-3.05-1.41-1.08-.59-2.09-1.3-3.17-1.9-2.3-1.26-4.32-2.95-6.32-4.63-1.52-1.28-3.1-2.71-4.98-3.43-1.71-.65-3.43-.31-4.88.78-1.05.79-1.9,1.81-2.66,2.86-.87,1.2-1.5,2.53-2.6,3.54-1.39,1.28-3,2.29-4.7,3.08-3.72,1.73-7.89,2.46-11.97,2.52s-8.48-.58-12.44-2.05c-3.58-1.33-7.05-3.4-9.41-6.46s-3.25-6.97-2.63-10.81c.09-.54.2-1.08.34-1.61s.33-1.14.14-1.65c-.31-.86-1.35-.49-1.96-.24-1.56.65-2.81,1.85-4.26,2.7-2.81,1.65-5.91,2.76-9.05,3.6-3.66.99-7.41,1.61-11.18,2-3.99.41-8.01.55-12.02.45s-7.7-.42-11.51-1.04c-3.29-.54-6.57-1.29-9.69-2.48-2.37-.9-4.79-2.07-6.61-3.88-1.38-1.38-2.28-3.17-2.06-5.15.27-2.54,2.05-4.74,3.79-6.48,1.39-1.38,2.93-2.61,4.53-3.74.98-.69,1.98-1.36,3-1.99,1.09-.68,2.36-1.22,2.97-2.41.68-1.32.4-2.63-.3-3.86-.83-1.46-1.58-2.98-2.12-4.58-.75-2.22-1.12-4.66-.41-6.94,1.36-4.37,6.07-6.7,9.95-8.38,2.5-1.09,5.07-2.01,7.63-2.95,1.22-.45,2.74-.76,3.65-1.76s1.14-2.34.76-3.58c-.11-.37-.69-.21-.58.16.54,1.75-.4,3.28-2.05,3.89-1.39.52-2.78,1.02-4.17,1.53-2.57.95-5.14,1.92-7.6,3.13-3.73,1.83-7.72,4.52-8.45,8.94-.41,2.46.18,4.97,1.1,7.25.29.72.62,1.43.97,2.13.4.79.97,1.56,1.26,2.39.26.76.19,1.61-.17,2.32s-.99,1.12-1.67,1.53c-3.51,2.11-7.05,4.49-9.76,7.59-1.56,1.79-2.98,4.01-2.97,6.46,0,2.06,1.11,3.87,2.59,5.23,1.94,1.78,4.4,2.93,6.84,3.84,3.2,1.18,6.56,1.93,9.93,2.45,3.86.6,7.76.91,11.66.99s8.07-.08,12.07-.52c3.78-.41,7.55-1.06,11.22-2.08,3.12-.87,6.22-2.01,9-3.69,1.48-.9,2.83-2.34,4.56-2.73.6-.14.63.23.55.77-.1.63-.31,1.24-.42,1.87-.19,1.02-.29,2.05-.29,3.08.01,3.76,1.53,7.27,4.13,9.97s6.33,4.67,10.03,5.83c4.07,1.27,8.41,1.76,12.67,1.51s8.13-1.13,11.73-3.04c1.62-.86,3.16-1.94,4.43-3.26.56-.58.92-1.32,1.36-1.99.47-.72.97-1.43,1.52-2.09.76-.9,1.64-1.78,2.71-2.29,1.74-.83,3.48-.19,5,.79,1.98,1.29,3.69,2.97,5.54,4.43,1.03.81,2.1,1.59,3.23,2.26.62.37,1.29.67,1.89,1.08.47.31.94.62,1.42.91,1.93,1.13,4.02,1.99,6.17,2.59,4.37,1.21,9.02,1.36,13.47.55s8.38-2.46,11.73-5.21,5.49-6.25,6.2-10.35c.4-2.3.32-4.65-.1-6.94-.26-1.41-.75-2.76-1.09-4.15-.14-.58-.34-1.38.09-1.89.58-.68,1.66-.45,2.43-.37,5.38.54,11.45-.78,15.43-4.65,1.71-1.67,2.92-3.82,3.24-6.2.37-2.77-.47-5.53-1.84-7.91-.83-1.45-1.87-2.81-2.9-4.13-.96-1.22-2.02-2.37-3.15-3.44-2.2-2.06-4.69-3.78-7.35-5.2-5.39-2.87-11.35-4.48-17.3-5.66-3.08-.61-6.18-1.12-9.27-1.61-1.51-.24-3.02-.47-4.53-.73s-2.62-1.33-2.68-2.87c-.03-.79.29-1.42.7-2.06s.79-1.3,1.14-1.97c.59-1.13,1.08-2.32,1.4-3.56.52-2,.55-4.13-.16-6.09-1.48-4.1-5.48-6.72-9.18-8.63-4.86-2.51-10.1-4.21-15.26-5.99-1.34-.46-2.71-.9-4.02-1.45-1.61-.67-3.27-1.22-4.97-1.59-2.97-.65-6.04-.76-9.04-.26-5.91.98-11.14,4.28-15.42,8.37-2.25,2.15-4.28,4.53-6.12,7.04-.47.64-.93,1.29-1.38,1.95s-.86,1.43-1.58,1.87c-1.36.83-2.89.31-3.89-.8-2.97-3.31-6.39-6.21-10.09-8.68-3.5-2.33-7.28-4.28-11.27-5.63-3.36-1.13-6.96-1.88-10.52-1.63-2.88.21-5.77,1.14-7.86,3.2-2.36,2.32-3.3,5.63-3.48,8.86-.28,5,1.01,10.04,2.58,14.74.12.36.7.21.58-.16Z"/>
    </g>
    <circle class="cls-2" cx="160.73" cy="184.75" r="12.6"/>
    <circle cx="163.07" cy="188.48" r="8.86"/>
    <circle class="cls-2" cx="227.37" cy="184.75" r="12.6"/>
    <circle cx="225.03" cy="188.48" r="8.86"/>
  </g>
  <rect x="192.61" y="212.5" width=".27" height="32.33" transform="translate(385.48 457.32) rotate(180)"/>
  <path class="cls-3" d="M211.35,214.63c0,5.95-8.79,16.08-18.53,16.08s-18.69-10.29-18.69-16.24,8.95-5.3,18.69-5.3,18.53-.48,18.53,5.47Z"/>
  <g>
    <path d="M177.58,260.06c-8.08,0-14.7-8-15.2-18.11-.02.41-.03.83-.03,1.25,0,10.69,6.82,19.36,15.24,19.36s15.24-8.67,15.24-19.36c0-.42-.01-.83-.03-1.25-.51,10.11-7.12,18.11-15.2,18.11Z"/>
    <path d="M208.06,260.06c-8.08,0-14.7-8-15.2-18.11-.02.41-.03.83-.03,1.25,0,10.69,6.82,19.36,15.24,19.36s15.24-8.67,15.24-19.36c0-.42-.01-.83-.03-1.25-.51,10.11-7.12,18.11-15.2,18.11Z"/>
  </g>
</svg>